<?xml version="1.0" encoding="utf-8"?>
<svg xmlns="http://www.w3.org/2000/svg" height="32" width="32" viewBox="0 0 32 32">
  <g>
    <path id="path1" transform="rotate(0,16,16) translate(0.850001335144043,0) scale(1,1)  " fill="#FFFFFF" d="M24.799996,18.100006C23.000008,18.100006 21.500008,19.400009 21.500008,20.900009 21.500008,22.5 23.000008,23.700012 24.799996,23.700012 26.599986,23.700012 28.099986,22.400009 28.099986,20.900009 28.099986,19.300003 26.599986,18.100006 24.799996,18.100006z M5.6999533,18.100006C3.8999651,18.100006 2.3999644,19.400009 2.3999644,20.900009 2.3999644,22.5 3.8999651,23.700012 5.6999533,23.700012 7.5000031,23.700012 9.0000036,22.400009 9.0000036,20.900009 8.899967,19.300003 7.5000031,18.100006 5.6999533,18.100006z M3.7999893,5.5L3.7999893,15.200012 25.899974,15.200012 25.899974,5.5z M8.399967,1.7000122C7.399966,1.7000122,7.5000031,4,8.399967,4L21.799996,4C23.19996,4,23.000008,1.7000122,21.799996,1.7000122z M0,0L30.299998,0 30.299998,5.4000092 30.299998,22.700012 30.299998,28.200012 28.00001,28.200012C28.00001,28.200012 28.099986,32 24.500008,32 20.799996,32 21.000008,28.200012 21.000008,28.200012L15.299993,28.200012 15.000006,28.200012 9.2999914,28.200012C9.2999914,28.200012 9.399967,32 5.79999,32 2.0999766,32 2.2999888,28.200012 2.2999888,28.200012L0,28.200012 0,22.700012 0,5.4000092z" />
  </g>
</svg>

