<?xml version="1.0" encoding="UTF-8"?>
<!DOCTYPE svg PUBLIC "-//W3C//DTD SVG 1.1//EN" "http://www.w3.org/Graphics/SVG/1.1/DTD/svg11.dtd">
<!-- Creator: CorelDRAW 2021 (64-Bit) -->
<svg xmlns="http://www.w3.org/2000/svg" xml:space="preserve" width="398px" height="420px" version="1.1" style="shape-rendering:geometricPrecision; text-rendering:geometricPrecision; image-rendering:optimizeQuality; fill-rule:evenodd; clip-rule:evenodd"
viewBox="0 0 25.49 26.92"
 xmlns:xlink="http://www.w3.org/1999/xlink"
 xmlns:xodm="http://www.corel.com/coreldraw/odm/2003">
 <defs>
  <style type="text/css">
   <![CDATA[
    .fil0 {fill:#0071AD;fill-rule:nonzero;fill-opacity:0.101961}
   ]]>
  </style>
 </defs>
 <g id="Layer_x0020_1">
  <metadata id="CorelCorpID_0Corel-Layer"/>
  <g id="_2285203624512">
   <g>
    <path id="path1" class="fil0" d="M20.87 15.23c-1.52,0 -2.78,1.09 -2.78,2.35 0,1.35 1.26,2.36 2.78,2.36 1.51,0 2.77,-1.09 2.77,-2.36 0,-1.34 -1.26,-2.35 -2.77,-2.35zm-16.07 0c-1.52,0 -2.78,1.09 -2.78,2.35 0,1.35 1.26,2.36 2.78,2.36 1.51,0 2.77,-1.09 2.77,-2.36 -0.08,-1.34 -1.26,-2.35 -2.77,-2.35zm-1.6 -10.6l0 8.16 18.59 0 0 -8.16 -18.59 0zm3.87 -3.2c-0.84,0 -0.76,1.94 0,1.94l11.27 0c1.18,0 1.01,-1.94 0,-1.94l-11.27 0zm-7.07 -1.43l25.49 0 0 4.54 0 14.56 0 4.63 -1.93 0c0,0 0.08,3.19 -2.95,3.19 -3.11,0 -2.94,-3.19 -2.94,-3.19l-4.8 0 -0.25 0 -4.8 0c0,0 0.09,3.19 -2.94,3.19 -3.11,0 -2.94,-3.19 -2.94,-3.19l-1.94 0 0 -4.63 0 -14.56 0 -4.54z"/>
   </g>
  </g>
 </g>
</svg>
